# xmcd CD database file
#
# Track frame offsets:
#	150
#	11805
#	24829
#	43088
#	56186
#	66026
#	81402
#	100566
#	115202
#	131223
#	145451
#	157637
#	166920
#
# Disc length: 2386 seconds
#
# Revision: 0
# Processed by: cddbd v1.5.2PL0 Copyright (c) Steve Scherf et al.
# Submitted via: CDex 1.70beta2
#
DISCID=a909500d
DTITLE=Dogwater - Working Grass Heroes
DYEAR=1900
DGENRE=Country
TTITLE0=Wild Bill Jones
TTITLE1=Faceless Love
TTITLE2=Ready For The Times
TTITLE3=Old Man At The Mill
TTITLE4=Striahgt From The Heart
TTITLE5=True True Love
TTITLE6=The Boatman
TTITLE7=Govett's Leap
TTITLE8=Poverty Line
TTITLE9=All My Tears
TTITLE10=Lose Again
TTITLE11=Hard Hearted
TTITLE12=Sally Goodin
EXTD=
EXTT0=
EXTT1=
EXTT2=
EXTT3=
EXTT4=
EXTT5=
EXTT6=
EXTT7=
EXTT8=
EXTT9=
EXTT10=
EXTT11=
EXTT12=
PLAYORDER=
